<svg xmlns="http://www.w3.org/2000/svg" version="1.1" xmlns:xlink="http://www.w3.org/1999/xlink" xmlns:svgjs="http://svgjs.dev/svgjs" style="overflow: hidden; height: 85vh;" viewBox="0 0 1920 1080" class="overflow-hidden rounded-md drop-shadow-lg transition duration-300"><rect width="1920" height="1080" fill="#f78a0c"/><g clip-path="url(&quot;#SvgjsClipPath1744&quot;)"><g transform="matrix(0.6094071538681853,-0.9752553105798899,0.9752553105798899,0.6094071538681853,-173.70345606124692,1092.1476418658906)"><path d="M0,-1080C6.490563700194362,-1001.132832183507,51.0751521862566,-780.9037167945785,38.94338220116617,-606.7969931010423C26.811612216075744,-432.6902694075061,-49.22247044337904,-194.44493027190296,-72.79061991054259,-35.35965783878285C-96.35876937770614,123.72561459433726,-130.07838097093946,212.4787669971971,-102.46551460181513,347.7146414976784C-74.85264823269081,482.95051599815963,62.344509238706294,611.4021514822559,92.88657830420334,776.0555891641047C123.42864736970039,940.7090268459535,107.07503335561101,1189.7875762846895,80.78689979116714,1335.635267588771C54.498766226723276,1481.4829588928526,-51.377739783932036,1513.7476149200554,-64.8422230824599,1651.1417369885935C-78.30670638098775,1788.5358590571316,-10.807037180409983,2075.190289498099,0,2160L 1920 2160 L 1920 -1080 Z" fill="url(&quot;#SvgjsLinearGradient1742&quot;)"/><path d="M960,-1080C952.8071789660936,-987.4760483840373,932.0751168435486,-686.3924889872488,916.8430737965614,-524.8562903042241C901.6110307495742,-363.32009162119937,857.1824043871816,-268.10424361098626,868.6077417180768,-110.78280790185173C880.033079048972,46.53862780728281,971.1286844156666,270.53147075326206,985.3950977819325,419.07232395058315C999.6615111481983,567.6131771479043,941.1220983001458,655.1672850217734,954.206221915672,780.462311282075C967.2903455311982,905.7573375423766,1077.9368083390948,1003.7349450633013,1063.8998394750897,1170.8424815123926C1049.8628706110846,1337.9500179614838,887.3010486441566,1618.2479435620214,869.9844087316417,1783.1075299766226C852.6677688191268,1947.9671163912237,944.9974014552736,2097.1845883294372,960,2160L 1920 2160 L 1920 -1080 Z" fill="url(&quot;#SvgjsLinearGradient1743&quot;)"/></g></g><defs><linearGradient x1="0.1" y1="0" x2="0" y2="1" id="SvgjsLinearGradient1742"><stop stop-color="#f78a0c" offset="0"/><stop stop-color="#f7630c" offset="0"/></linearGradient><linearGradient x1="0.1" y1="0" x2="0" y2="1" id="SvgjsLinearGradient1743"><stop stop-color="#ffffff" offset="0"/><stop stop-color="#ffffff" offset="0.5"/></linearGradient><clipPath id="SvgjsClipPath1744"><rect width="1920" height="1080"/></clipPath></defs></svg>